REM DIRINDEX 1\2,1\3\5,1\3\6,1\4\7,1\4\8
REM DIRNAME folder01,folder02,folder03,folder04,folder05,folder06,folder07,folder08
TITLE ""
FILE "EG_E1.5_05.mp3" MP3
  TRACK 01 AUDIO
    TITLE "0:"
    INDEX 01 00:00:00
  TRACK 02 AUDIO
    TITLE "2:cjc139_0112"
    INDEX 01 00:00:17
  TRACK 03 AUDIO
    TITLE "0:"
    INDEX 01 00:03:29
  TRACK 04 AUDIO
    TITLE "2:cjc139_0113"
    INDEX 01 00:04:52
  TRACK 05 AUDIO
    TITLE "0:"
    INDEX 01 00:06:49
  TRACK 06 AUDIO
    TITLE "2:cjc139_0114"
    INDEX 01 00:07:72
  TRACK 07 AUDIO
    TITLE "0:"
    INDEX 01 00:10:23
  TRACK 08 AUDIO
    TITLE "2:cjc139_0115"
    INDEX 01 00:11:44
  TRACK 09 AUDIO
    TITLE "0:"
    INDEX 01 00:14:02
  TRACK 10 AUDIO
    TITLE "2:cjc139_0116"
    INDEX 01 00:15:25
  TRACK 11 AUDIO
    TITLE "0:"
    INDEX 01 00:18:33
  TRACK 12 AUDIO
    TITLE "2:cjc139_0117"
    INDEX 01 00:19:56
  TRACK 13 AUDIO
    TITLE "0:"
    INDEX 01 00:21:60
  TRACK 14 AUDIO
    TITLE "2:cjc139_0118"
    INDEX 01 00:23:08
  TRACK 15 AUDIO
    TITLE "0:"
    INDEX 01 00:25:11
  TRACK 16 AUDIO
    TITLE "2:cjc139_0119"
    INDEX 01 00:26:32
  TRACK 17 AUDIO
    TITLE "0:"
    INDEX 01 00:28:13
  TRACK 18 AUDIO
    TITLE "2:cjc139_0120"
    INDEX 01 00:29:38
  TRACK 19 AUDIO
    TITLE "0:"
    INDEX 01 00:31:10
  TRACK 20 AUDIO
    TITLE "2:cjc139_0121"
    INDEX 01 00:32:33
  TRACK 21 AUDIO
    TITLE "0:"
    INDEX 01 00:33:73
  TRACK 22 AUDIO
    TITLE "2:cjc139_0122"
    INDEX 01 00:35:19
  TRACK 23 AUDIO
    TITLE "0:"
    INDEX 01 00:37:05
  TRACK 24 AUDIO
    TITLE "2:cjc139_0123"
    INDEX 01 00:38:28
  TRACK 25 AUDIO
    TITLE "0:"
    INDEX 01 00:40:19
  TRACK 26 AUDIO
    TITLE "2:cjc139_0124"
    INDEX 01 00:41:42
  TRACK 27 AUDIO
    TITLE "0:"
    INDEX 01 00:43:25
  TRACK 28 AUDIO
    TITLE "2:cjc139_0125"
    INDEX 01 00:44:48
  TRACK 29 AUDIO
    TITLE "0:"
    INDEX 01 00:47:64
  TRACK 30 AUDIO
    TITLE "2:cjc139_0126"
    INDEX 01 00:49:10
  TRACK 31 AUDIO
    TITLE "0:"
    INDEX 01 00:51:67
  TRACK 32 AUDIO
    TITLE "2:cjc139_0127"
    INDEX 01 00:53:13
  TRACK 33 AUDIO
    TITLE "0:"
    INDEX 01 00:55:55
  TRACK 34 AUDIO
    TITLE "2:cjc139_0128"
    INDEX 01 00:57:01
  TRACK 35 AUDIO
    TITLE "0:"
    INDEX 01 00:59:16
  TRACK 36 AUDIO
    TITLE "2:cjc139_0129"
    INDEX 01 01:00:41
  TRACK 37 AUDIO
    TITLE "0:"
    INDEX 01 01:02:20
  TRACK 38 AUDIO
    TITLE "2:cjc139_0130"
    INDEX 01 01:03:41
  TRACK 39 AUDIO
    TITLE "0:"
    INDEX 01 01:06:36
  TRACK 40 AUDIO
    TITLE "2:cjc139_0131"
    INDEX 01 01:07:57
  TRACK 41 AUDIO
    TITLE "0:"
    INDEX 01 01:09:54
  TRACK 42 AUDIO
    TITLE "2:cjc139_0132"
    INDEX 01 01:11:00
  TRACK 43 AUDIO
    TITLE "0:"
    INDEX 01 01:13:26
  TRACK 44 AUDIO
    TITLE "2:cjc139_0133"
    INDEX 01 01:14:49
  TRACK 45 AUDIO
    TITLE "0:"
    INDEX 01 01:16:38
  TRACK 46 AUDIO
    TITLE "2:cjc139_0134"
    INDEX 01 01:17:63
  TRACK 47 AUDIO
    TITLE "0:"
    INDEX 01 01:19:68
  TRACK 48 AUDIO
    TITLE "2:cjc139_0135"
    INDEX 01 01:21:16
  TRACK 49 AUDIO
    TITLE "0:"
    INDEX 01 01:23:44
  TRACK 50 AUDIO
    TITLE "2:cjc139_0136"
    INDEX 01 01:24:65
  TRACK 51 AUDIO
    TITLE "0:"
    INDEX 01 01:27:51
  TRACK 52 AUDIO
    TITLE "2:cjc139_0137"
    INDEX 01 01:29:01
  TRACK 53 AUDIO
    TITLE "0:"
    INDEX 01 01:30:67
  TRACK 54 AUDIO
    TITLE "2:cjc139_0138"
    INDEX 01 01:32:17
  TRACK 55 AUDIO
    TITLE "0:"
    INDEX 01 01:34:14
  TRACK 56 AUDIO
    TITLE "2:cjc139_0139"
    INDEX 01 01:35:35
  TRACK 57 AUDIO
    TITLE "0:"
    INDEX 01 01:37:28
  TRACK 58 AUDIO
    TITLE "2:cjc139_0140"
    INDEX 01 01:38:51
  TRACK 59 AUDIO
    TITLE "0:"
    INDEX 01 01:41:26
  TRACK 60 AUDIO
    TITLE "2:cjc139_0141"
    INDEX 01 01:42:49
  TRACK 61 AUDIO
    TITLE "0:"
    INDEX 01 01:45:28
  TRACK 62 AUDIO
    TITLE "2:cjc139_0142"
    INDEX 01 01:46:49
  TRACK 63 AUDIO
    TITLE "0:"
    INDEX 01 01:49:06
  TRACK 64 AUDIO
    TITLE "2:cjc139_0143"
    INDEX 01 01:50:29
  TRACK 65 AUDIO
    TITLE "0:"
    INDEX 01 01:52:44
  TRACK 66 AUDIO
    TITLE "2:cjc139_0144"
    INDEX 01 01:53:65
  TRACK 67 AUDIO
    TITLE "0:"
    INDEX 01 01:56:67
  TRACK 68 AUDIO
    TITLE "2:cjc139_0145"
    INDEX 01 01:58:15
  TRACK 69 AUDIO
    TITLE "0:"
    INDEX 01 02:01:43
  TRACK 70 AUDIO
    TITLE "2:cjc139_0146"
    INDEX 01 02:02:67
  TRACK 71 AUDIO
    TITLE "0:"
    INDEX 01 02:06:44
  TRACK 72 AUDIO
    TITLE "2:cjc139_0147"
    INDEX 01 02:07:65
  TRACK 73 AUDIO
    TITLE "0:"
    INDEX 01 02:09:42
  TRACK 74 AUDIO
    TITLE "2:cjc139_0148"
    INDEX 01 02:10:65
  TRACK 75 AUDIO
    TITLE "0:"
    INDEX 01 02:12:66
  TRACK 76 AUDIO
    TITLE "2:cjc139_0149"
    INDEX 01 02:14:12
  TRACK 77 AUDIO
    TITLE "0:"
    INDEX 01 02:15:58
  TRACK 78 AUDIO
    TITLE "2:cjc139_0150"
    INDEX 01 02:17:04
  TRACK 79 AUDIO
    TITLE "0:"
    INDEX 01 02:19:68
  TRACK 80 AUDIO
    TITLE "2:cjc139_0151"
    INDEX 01 02:21:16
  TRACK 81 AUDIO
    TITLE "0:"
    INDEX 01 02:23:11
  TRACK 82 AUDIO
    TITLE "2:cjc139_0152"
    INDEX 01 02:24:34
  TRACK 83 AUDIO
    TITLE "0:"
    INDEX 01 02:27:63
  TRACK 84 AUDIO
    TITLE "2:cjc139_0153"
    INDEX 01 02:29:13
  TRACK 85 AUDIO
    TITLE "0:"
    INDEX 01 02:31:71
  TRACK 86 AUDIO
    TITLE "2:cjc139_0154"
    INDEX 01 02:33:19
  TRACK 87 AUDIO
    TITLE "0:"
    INDEX 01 02:35:41
  TRACK 88 AUDIO
    TITLE "2:cjc139_0155"
    INDEX 01 02:36:64
  TRACK 89 AUDIO
    TITLE "0:"
    INDEX 01 02:39:35
  TRACK 90 AUDIO
    TITLE "2:cjc139_0156"
    INDEX 01 02:40:58
  TRACK 91 AUDIO
    TITLE "0:"
    INDEX 01 02:43:14
  TRACK 92 AUDIO
    TITLE "2:cjc139_0157"
    INDEX 01 02:44:38
  TRACK 93 AUDIO
    TITLE "0:"
    INDEX 01 02:46:31
  TRACK 94 AUDIO
    TITLE "2:cjc139_0158"
    INDEX 01 02:47:52
  TRACK 95 AUDIO
    TITLE "0:"
    INDEX 01 02:50:08
  TRACK 96 AUDIO
    TITLE "2:cjc139_0159"
    INDEX 01 02:51:33
  TRACK 97 AUDIO
    TITLE "0:"
    INDEX 01 02:54:00
  TRACK 98 AUDIO
    TITLE "2:cjc139_0160"
    INDEX 01 02:55:23
  TRACK 99 AUDIO
    TITLE "0:"
    INDEX 01 02:57:41
  TRACK 100 AUDIO
    TITLE "2:cjc139_0161"
    INDEX 01 02:58:64
  TRACK 101 AUDIO
    TITLE "0:"
    INDEX 01 03:01:13
  TRACK 102 AUDIO
    TITLE "2:cjc139_0162"
    INDEX 01 03:02:34
  TRACK 103 AUDIO
    TITLE "0:"
    INDEX 01 03:04:41
  TRACK 104 AUDIO
    TITLE "2:cjc139_0163"
    INDEX 01 03:05:64
  TRACK 105 AUDIO
    TITLE "0:"
    INDEX 01 03:08:13
  TRACK 106 AUDIO
    TITLE "2:cjc139_0164"
    INDEX 01 03:09:34
  TRACK 107 AUDIO
    TITLE "0:"
    INDEX 01 03:11:18
  TRACK 108 AUDIO
    TITLE "2:cjc139_0165"
    INDEX 01 03:12:43
  TRACK 109 AUDIO
    TITLE "0:"
    INDEX 01 03:14:16
  TRACK 110 AUDIO
    TITLE "2:cjc139_0166"
    INDEX 01 03:15:37
  TRACK 111 AUDIO
    TITLE "0:"
    INDEX 01 03:18:08
  TRACK 112 AUDIO
    TITLE "2:cjc139_0167"
    INDEX 01 03:19:29
  TRACK 113 AUDIO
    TITLE "0:"
    INDEX 01 03:22:63
  TRACK 114 AUDIO
    TITLE "2:cjc139_0168"
    INDEX 01 03:24:12
  TRACK 115 AUDIO
    TITLE "0:"
    INDEX 01 03:27:46
  TRACK 116 AUDIO
    TITLE "2:cjc139_0169"
    INDEX 01 03:28:67
  TRACK 117 AUDIO
    TITLE "0:"
    INDEX 01 03:31:16
  TRACK 118 AUDIO
    TITLE "2:cjc139_0170"
    INDEX 01 03:32:37
  TRACK 119 AUDIO
    TITLE "0:"
    INDEX 01 03:35:55
  TRACK 120 AUDIO
    TITLE "2:cjc139_0171"
    INDEX 01 03:37:01
  TRACK 121 AUDIO
    TITLE "0:"
    INDEX 01 03:40:06
  TRACK 122 AUDIO
    TITLE "2:cjc139_0172"
    INDEX 01 03:41:31
  TRACK 123 AUDIO
    TITLE "0:"
    INDEX 01 03:44:62
  TRACK 124 AUDIO
    TITLE "2:cjc139_0173"
    INDEX 01 03:46:08
  TRACK 125 AUDIO
    TITLE "0:"
    INDEX 01 03:48:56
  TRACK 126 AUDIO
    TITLE "2:cjc139_0174"
    INDEX 01 03:50:02
  TRACK 127 AUDIO
    TITLE "0:"
    INDEX 01 03:52:46
